<?xml version="1.0" ?><svg height="20" version="1.1" viewBox="0 0 20 20" width="20" xmlns="http://www.w3.org/2000/svg"><g id="layer1"><path d="M 6.5859375 3 L 3.5859375 6 L 0 6 L 0 14 L 3.5859375 14 L 6.5859375 17 L 8 17 L 8 3 L 6.5859375 3 z M 7 4 L 7 16 L 4 13 L 1 13 L 1 7 L 4 7 L 7 4 z M 11.818359 6.1113281 L 11.111328 6.8183594 L 14.292969 10 L 11.111328 13.181641 L 11.818359 13.888672 L 15 10.707031 L 18.181641 13.888672 L 18.888672 13.181641 L 15.707031 10 L 18.888672 6.8183594 L 18.181641 6.1113281 L 15 9.2929688 L 11.818359 6.1113281 z " style="fill:#222222; fill-opacity:1; stroke:none; stroke-width:0px;"/></g></svg>