<svg>
    <symbol id="icon-search"  viewBox="0 0 17 18"  xmlns="http://www.w3.org/2000/svg">
        <path d="M11.9276 12.7748L15.37 17.0644" stroke="white" stroke-linecap="round"/>
        <circle cx="8.48533" cy="8.48526" r="5.5" transform="rotate(-38.7469 8.48533 8.48526)" stroke="white"/>
    </symbol>
    <symbol id="icon-search-light"  viewBox="0 0 17 18"  xmlns="http://www.w3.org/2000/svg">
        <path d="M11.9276 12.7748L15.37 17.0644" stroke="black" stroke-linecap="round"/>
        <circle cx="8.48533" cy="8.48526" r="5.5" transform="rotate(-38.7469 8.48533 8.48526)" stroke="black"/>
    </symbol>
    <symbol id="icon-watch"  viewBox="0 0 12 12"  xmlns="http://www.w3.org/2000/svg">
        <circle cx="6" cy="6" r="5.5" stroke="#696969"/>
        <path d="M4 6H6.5V2.5" stroke="#696969"/>
    </symbol>
    <symbol id="icon-watch-light"  viewBox="0 0 12 12"  xmlns="http://www.w3.org/2000/svg">
        <circle cx="6" cy="6" r="5.5" stroke="#B1B1B1"/>
        <path d="M4 6H6.5V2.5" stroke="#B1B1B1"/>
    </symbol>
    <symbol id="icon-like"  viewBox="0 0 16 14"  xmlns="http://www.w3.org/2000/svg">
        <path d="M8.34372 2.25572H8.36529C9.29718 1.44175 11.7563 0.165765 13.9565 1.76734C17.3111 4.20921 14.2458 9.5 8.36529 13H8.34372M8.34378 2.25572H8.32221C7.39032 1.44175 4.93121 0.165765 2.73102 1.76734C-0.623552 4.20921 2.44172 9.5 8.32221 13H8.34378"/>
    </symbol>
    <symbol id="icon-like-light"  viewBox="0 0 16 14"  xmlns="http://www.w3.org/2000/svg">
        <path d="M8.34372 2.25572H8.36529C9.29718 1.44175 11.7563 0.165765 13.9565 1.76734C17.3111 4.20921 14.2458 9.5 8.36529 13H8.34372M8.34378 2.25572H8.32221C7.39032 1.44175 4.93121 0.165765 2.73102 1.76734C-0.623552 4.20921 2.44172 9.5 8.32221 13H8.34378" stroke="#B1B1B1"/>
    </symbol>
    <symbol id="icon-note"  viewBox="0 0 20 19"  xmlns="http://www.w3.org/2000/svg">
        <path d="M8 16V1.9697L19 1V13" stroke="#4E4E4E"/>
        <ellipse cx="4.5" cy="16" rx="3.5" ry="2" stroke="#4E4E4E"/>
        <ellipse cx="15.5" cy="13" rx="3.5" ry="2" stroke="#4E4E4E"/>
    </symbol>
    <symbol id="icon-note-light"  viewBox="0 0 20 19"  xmlns="http://www.w3.org/2000/svg">
        <path d="M8 16V1.9697L19 1V13" stroke="#B1B1B1"/>
        <ellipse cx="4.5" cy="16" rx="3.5" ry="2" stroke="#B1B1B1"/>
        <ellipse cx="15.5" cy="13" rx="3.5" ry="2" stroke="#B1B1B1"/>
    </symbol>
    <symbol id="icon-volume" fill="none" viewBox="0 0 14 18" xmlns="http://www.w3.org/2000/svg">
        <mask id="path-1-inside-1_2985_507" fill="white">
        <path fill-rule="evenodd" clip-rule="evenodd" d="M8 0L3 5H0V13H3L8 18V0Z"/>
        </mask>
        <path d="M3 5V6H3.41421L3.70711 5.70711L3 5ZM8 0H9V-2.41421L7.29289 -0.707107L8 0ZM0 5V4H-1V5H0ZM0 13H-1V14H0V13ZM3 13L3.70711 12.2929L3.41421 12H3V13ZM8 18L7.29289 18.7071L9 20.4142V18H8ZM3.70711 5.70711L8.70711 0.707107L7.29289 -0.707107L2.29289 4.29289L3.70711 5.70711ZM0 6H3V4H0V6ZM1 13V5H-1V13H1ZM3 12H0V14H3V12ZM8.70711 17.2929L3.70711 12.2929L2.29289 13.7071L7.29289 18.7071L8.70711 17.2929ZM7 0V18H9V0H7Z" fill="white" mask="url(#path-1-inside-1_2985_507)"/>
        <path d="M11 13C12.1046 13 13 11.2091 13 9C13 6.79086 12.1046 5 11 5" stroke="white"/>
    </symbol>
    <symbol id="icon-volume-light" fill="none" viewBox="0 0 14 18" xmlns="http://www.w3.org/2000/svg">
        <mask id="path-1-inside-1_2985_507" fill="#B1B1B1">
        <path fill-rule="evenodd" clip-rule="evenodd" d="M8 0L3 5H0V13H3L8 18V0Z"/>
        </mask>
        <path d="M3 5V6H3.41421L3.70711 5.70711L3 5ZM8 0H9V-2.41421L7.29289 -0.707107L8 0ZM0 5V4H-1V5H0ZM0 13H-1V14H0V13ZM3 13L3.70711 12.2929L3.41421 12H3V13ZM8 18L7.29289 18.7071L9 20.4142V18H8ZM3.70711 5.70711L8.70711 0.707107L7.29289 -0.707107L2.29289 4.29289L3.70711 5.70711ZM0 6H3V4H0V6ZM1 13V5H-1V13H1ZM3 12H0V14H3V12ZM8.70711 17.2929L3.70711 12.2929L2.29289 13.7071L7.29289 18.7071L8.70711 17.2929ZM7 0V18H9V0H7Z" fill="#B1B1B1" mask="url(#path-1-inside-1_2985_507)"/>
        <path d="M11 13C12.1046 13 13 11.2091 13 9C13 6.79086 12.1046 5 11 5" stroke="#B1B1B1"/>
    </symbol>
    <symbol id="icon-dislike"  viewBox="0 0 16 15"  xmlns="http://www.w3.org/2000/svg">
        <path d="M8.34372 3.25572H8.36529C9.29718 2.44175 11.7563 1.16576 13.9565 2.76734C17.3111 5.20921 14.2458 10.5 8.36529 14H8.34372M8.34378 3.25572H8.32221C7.39032 2.44175 4.93121 1.16576 2.73102 2.76734C-0.623552 5.20921 2.44172 10.5 8.32221 14H8.34378" />
        <path d="M1 1L15 13.5" />
    </symbol>
    <symbol id="icon-dislike-light"  viewBox="0 0 16 15"  xmlns="http://www.w3.org/2000/svg">
        <path d="M8.34372 3.25572H8.36529C9.29718 2.44175 11.7563 1.16576 13.9565 2.76734C17.3111 5.20921 14.2458 10.5 8.36529 14H8.34372M8.34378 3.25572H8.32221C7.39032 2.44175 4.93121 1.16576 2.73102 2.76734C-0.623552 5.20921 2.44172 10.5 8.32221 14H8.34378" stroke="#B1B1B1"/>
        <path d="M1 1L15 13.5" stroke="#B1B1B1"/>
    </symbol>
    <symbol id="icon-prev" viewBox="0 0 16 14"  xmlns="http://www.w3.org/2000/svg">
        <path d="M1 2V12.5" stroke="white"/>
        <path d="M3 7L12.75 0.937823L12.75 13.0622L3 7Z" fill="#D9D9D9"/>
    </symbol>
    <symbol id="icon-prev-light" viewBox="0 0 16 14"  xmlns="http://www.w3.org/2000/svg">
        <path d="M1 2V12.5" stroke="#B1B1B1"/>
        <path d="M3 7L12.75 0.937823L12.75 13.0622L3 7Z" fill="#B1B1B1"/>
    </symbol>
    <symbol id="icon-play" viewBox="0 0 15 20"  xmlns="http://www.w3.org/2000/svg">
        <path d="M15 10L-1.01012e-06 0.47372L-1.84293e-06 19.5263L15 10Z" fill="#D9D9D9"/>
    </symbol>
    <symbol id="icon-play-light" viewBox="0 0 15 20"  xmlns="http://www.w3.org/2000/svg">
        <path d="M15 10L-1.01012e-06 0.47372L-1.84293e-06 19.5263L15 10Z" fill="#B1B1B1"/>
    </symbol>
    <symbol id="icon-next" viewBox="0 0 16 14"  xmlns="http://www.w3.org/2000/svg">
        <path d="M15 2V12.5" stroke="white"/>
        <path d="M13 7L3.25 0.937823L3.25 13.0622L13 7Z" fill="#D9D9D9"/>
    </symbol>
    <symbol id="icon-next-light" viewBox="0 0 16 14"  xmlns="http://www.w3.org/2000/svg">
        <path d="M15 2V12.5" stroke="#B1B1B1"/>
        <path d="M13 7L3.25 0.937823L3.25 13.0622L13 7Z" fill="#B1B1B1" stroke="#B1B1B1"/>
    </symbol>
    <symbol id="icon-repeat" viewBox="0 0 20 18"  xmlns="http://www.w3.org/2000/svg">
        <path d="M10 3L5 0.113249V5.88675L10 3ZM7 14.5C3.96243 14.5 1.5 12.0376 1.5 9H0.5C0.5 12.5899 3.41015 15.5 7 15.5V14.5ZM1.5 9C1.5 5.96243 3.96243 3.5 7 3.5V2.5C3.41015 2.5 0.5 5.41015 0.5 9H1.5Z" fill="#696969"/>
        <path d="M10 15L15 17.8868V12.1132L10 15ZM13 3.5C16.0376 3.5 18.5 5.96243 18.5 9H19.5C19.5 5.41015 16.5899 2.5 13 2.5V3.5ZM18.5 9C18.5 12.0376 16.0376 14.5 13 14.5V15.5C16.5899 15.5 19.5 12.5899 19.5 9H18.5Z" fill="#696969"/>
    </symbol>
    <symbol id="icon-repeat-light" viewBox="0 0 20 18"  xmlns="http://www.w3.org/2000/svg">
        <path d="M10 3L5 0.113249V5.88675L10 3ZM7 14.5C3.96243 14.5 1.5 12.0376 1.5 9H0.5C0.5 12.5899 3.41015 15.5 7 15.5V14.5ZM1.5 9C1.5 5.96243 3.96243 3.5 7 3.5V2.5C3.41015 2.5 0.5 5.41015 0.5 9H1.5Z" fill="#B1B1B1" stroke="#B1B1B1"/>
        <path d="M10 15L15 17.8868V12.1132L10 15ZM13 3.5C16.0376 3.5 18.5 5.96243 18.5 9H19.5C19.5 5.41015 16.5899 2.5 13 2.5V3.5ZM18.5 9C18.5 12.0376 16.0376 14.5 13 14.5V15.5C16.5899 15.5 19.5 12.5899 19.5 9H18.5Z" fill="#B1B1B1" stroke="#B1B1B1"/>
    </symbol>
    <symbol id="icon-shuffle" viewBox="0 0 20 18"  xmlns="http://www.w3.org/2000/svg">
        <path d="M19.5 15L14.5 12.1132V17.8868L19.5 15ZM10.1632 12.0833L9.70863 12.2916L10.1632 12.0833ZM7.33683 5.91673L6.8823 6.12505L7.33683 5.91673ZM0.5 3.5H2.79151V2.5H0.5V3.5ZM6.8823 6.12505L9.70863 12.2916L10.6177 11.8749L7.79137 5.7084L6.8823 6.12505ZM14.7085 15.5H15V14.5H14.7085V15.5ZM9.70863 12.2916C10.6047 14.2466 12.5579 15.5 14.7085 15.5V14.5C12.949 14.5 11.3508 13.4745 10.6177 11.8749L9.70863 12.2916ZM2.79151 3.5C4.55105 3.5 6.14918 4.52552 6.8823 6.12505L7.79137 5.7084C6.89533 3.75341 4.94205 2.5 2.79151 2.5V3.5Z" fill="#696969"/>
        <path d="M19.5 3L14.5 5.88675V0.113249L19.5 3ZM10.1632 5.91673L9.70863 5.7084L10.1632 5.91673ZM7.33683 12.0833L6.8823 11.8749L7.33683 12.0833ZM0.5 14.5H2.79151V15.5H0.5V14.5ZM6.8823 11.8749L9.70863 5.7084L10.6177 6.12505L7.79137 12.2916L6.8823 11.8749ZM14.7085 2.5H15V3.5H14.7085V2.5ZM9.70863 5.7084C10.6047 3.75341 12.5579 2.5 14.7085 2.5V3.5C12.949 3.5 11.3508 4.52552 10.6177 6.12505L9.70863 5.7084ZM2.79151 14.5C4.55105 14.5 6.14918 13.4745 6.8823 11.8749L7.79137 12.2916C6.89533 14.2466 4.94205 15.5 2.79151 15.5V14.5Z" fill="#696969"/>
    </symbol>
    <symbol id="icon-shuffle-light" viewBox="0 0 20 18"  xmlns="http://www.w3.org/2000/svg">
        <path d="M19.5 15L14.5 12.1132V17.8868L19.5 15ZM10.1632 12.0833L9.70863 12.2916L10.1632 12.0833ZM7.33683 5.91673L6.8823 6.12505L7.33683 5.91673ZM0.5 3.5H2.79151V2.5H0.5V3.5ZM6.8823 6.12505L9.70863 12.2916L10.6177 11.8749L7.79137 5.7084L6.8823 6.12505ZM14.7085 15.5H15V14.5H14.7085V15.5ZM9.70863 12.2916C10.6047 14.2466 12.5579 15.5 14.7085 15.5V14.5C12.949 14.5 11.3508 13.4745 10.6177 11.8749L9.70863 12.2916ZM2.79151 3.5C4.55105 3.5 6.14918 4.52552 6.8823 6.12505L7.79137 5.7084C6.89533 3.75341 4.94205 2.5 2.79151 2.5V3.5Z" fill="#B1B1B1" stroke="#B1B1B1"/>
        <path d="M19.5 3L14.5 5.88675V0.113249L19.5 3ZM10.1632 5.91673L9.70863 5.7084L10.1632 5.91673ZM7.33683 12.0833L6.8823 11.8749L7.33683 12.0833ZM0.5 14.5H2.79151V15.5H0.5V14.5ZM6.8823 11.8749L9.70863 5.7084L10.6177 6.12505L7.79137 12.2916L6.8823 11.8749ZM14.7085 2.5H15V3.5H14.7085V2.5ZM9.70863 5.7084C10.6047 3.75341 12.5579 2.5 14.7085 2.5V3.5C12.949 3.5 11.3508 4.52552 10.6177 6.12505L9.70863 5.7084ZM2.79151 14.5C4.55105 14.5 6.14918 13.4745 6.8823 11.8749L7.79137 12.2916C6.89533 14.2466 4.94205 15.5 2.79151 15.5V14.5Z" fill="#B1B1B1" stroke="#B1B1B1"/>
    </symbol>
    <symbol id="icon-pause" width="15" height="19" viewBox="0 0 20 20" fill="none" xmlns="http://www.w3.org/2000/svg">
        <rect x="4" width="5" height="24" fill="#D9D9D9"/>
        <rect x="14" width="5" height="24" fill="#D9D9D9"/>
    </symbol>
    <symbol id="icon-pause-light" width="15" height="19" viewBox="0 0 20 20" fill="none" xmlns="http://www.w3.org/2000/svg">
        <rect x="4" width="5" height="24" fill="#B1B1B1"/>
        <rect x="14" width="5" height="24" fill="#B1B1B1"/>
    </symbol>
        <symbol id="icon-theme" width="40" height="40" viewBox="0 0 40 40" fill="none" xmlns="http://www.w3.org/2000/svg">
        <path d="M19.2836 28.1637C14.7493 28.1637 11.0605 24.4749 11.0605 19.9406C11.0605 15.6864 14.2507 12.1687 18.4807 11.758C18.7516 11.731 19.0073 11.88 19.119 12.1271C19.2313 12.3743 19.1741 12.6651 18.9766 12.8507C17.9454 13.8215 17.3777 15.1311 17.3777 16.5389C17.3777 19.3352 19.6527 21.6102 22.449 21.6102C23.9739 21.6102 25.4033 20.9324 26.3719 19.7518C26.544 19.5419 26.8311 19.4658 27.0836 19.5597C27.3378 19.6546 27.5029 19.9007 27.4954 20.1716C27.3713 24.653 23.764 28.1637 19.2836 28.1637ZM16.9498 13.3844C14.2264 14.3422 12.3281 16.9226 12.3281 19.9406C12.3281 23.7762 15.4481 26.8962 19.2836 26.8962C22.4959 26.8962 25.1772 24.762 25.9834 21.8028C24.9506 22.4984 23.7262 22.8788 22.449 22.8788C18.9534 22.8788 16.1097 20.0356 16.1097 16.5395C16.1097 15.4106 16.401 14.3325 16.9498 13.3844Z" fill="white"/>
        <circle cx="19.5576" cy="20.2549" r="19" stroke="white"/>
    </symbol>
    <symbol id="icon-theme-light" width="40" height="40" viewBox="0 0 40 40" fill="none" xmlns="http://www.w3.org/2000/svg">
        <path d="M19.887 26.5137C16.4577 26.5137 13.668 23.7239 13.668 20.2947C13.668 16.8654 16.4577 14.0762 19.887 14.0762C23.3163 14.0762 26.106 16.866 26.106 20.2947C26.106 23.7239 23.3163 26.5137 19.887 26.5137ZM19.887 15.3197C17.1438 15.3197 14.912 17.5515 14.912 20.2947C14.912 23.0384 17.1438 25.2697 19.887 25.2697C22.6302 25.2697 24.862 23.0384 24.862 20.2947C24.862 17.552 22.6302 15.3197 19.887 15.3197Z" fill="black"/>
        <path d="M19.8867 11.7103C19.5431 11.7103 19.2646 11.4313 19.2646 11.0883V8.49648C19.2646 8.15292 19.5431 7.875 19.8867 7.875C20.2297 7.875 20.5087 8.15292 20.5087 8.49648V11.0883C20.5087 11.4313 20.2297 11.7103 19.8867 11.7103Z" fill="black"/>
        <path d="M26.0762 14.8717C25.9169 14.8717 25.7581 14.8109 25.6363 14.6896C25.3934 14.4472 25.3934 14.0533 25.6363 13.8103L27.8645 11.5822C28.1074 11.3398 28.5008 11.3398 28.7437 11.5822C28.9867 11.8252 28.9867 12.2191 28.7437 12.4615L26.5156 14.6896C26.3944 14.8109 26.2356 14.8717 26.0762 14.8717Z" fill="black"/>
        <path d="M12.7063 14.8717C12.547 14.8717 12.3877 14.8109 12.2664 14.6896L10.0378 12.4615C9.79534 12.2191 9.79534 11.8252 10.0378 11.5822C10.2808 11.3398 10.6746 11.3398 10.9171 11.5822L13.1457 13.8103C13.3882 14.0533 13.3882 14.4477 13.1457 14.6896C13.0245 14.8109 12.8652 14.8717 12.7063 14.8717Z" fill="black"/>
        <path d="M19.3915 32.621C19.048 32.621 18.7695 32.3425 18.7695 31.999V29.4072C18.7695 29.0636 19.048 28.7852 19.3915 28.7852C19.7346 28.7852 20.013 29.0636 20.013 29.4072V31.999C20.013 32.3425 19.7346 32.621 19.3915 32.621Z" fill="black"/>
        <path d="M10.9732 29.0963C10.8144 29.0963 10.655 29.0354 10.5338 28.9142C10.2908 28.6717 10.2908 28.2774 10.5338 28.0344L12.7619 25.8063C13.0049 25.5633 13.3982 25.5633 13.6412 25.8063C13.8842 26.0487 13.8842 26.4426 13.6412 26.6855L11.4131 28.9142C11.2919 29.0354 11.1325 29.0963 10.9732 29.0963Z" fill="black"/>
        <path d="M28.8005 29.0963C28.6416 29.0963 28.4823 29.0354 28.3605 28.9142L26.1324 26.6855C25.8895 26.4426 25.8895 26.0492 26.1324 25.8063C26.3754 25.5633 26.7687 25.5633 27.0117 25.8063L29.2398 28.0344C29.4828 28.2774 29.4828 28.6707 29.2398 28.9142C29.1186 29.0354 28.9598 29.0963 28.8005 29.0963Z" fill="black"/>
        <path d="M10.4779 20.9169H7.67963C7.33607 20.9169 7.05762 20.6384 7.05762 20.2949C7.05762 19.9518 7.33607 19.6729 7.67963 19.6729H10.4779C10.8214 19.6729 11.0999 19.9513 11.0999 20.2949C11.0994 20.6384 10.8214 20.9169 10.4779 20.9169Z" fill="black"/>
        <path d="M31.6212 20.9169H28.3041C27.9606 20.9169 27.6821 20.6384 27.6821 20.2949C27.6821 19.9518 27.9606 19.6729 28.3041 19.6729H31.6212C31.9642 19.6729 32.2432 19.9513 32.2432 20.2949C32.2432 20.6384 31.9642 20.9169 31.6212 20.9169Z" fill="black"/>
        <circle cx="19.5576" cy="20.375" r="19" stroke="black"/>
    </symbol>
</svg>